<svg width="461" height="426" viewBox="0 0 461 426" fill="none" xmlns="http://www.w3.org/2000/svg">
<g clip-path="url(#clip0_73_907)">
<path d="M460.357 0H0V425.445H460.357V0Z" fill="white"/>
<path fill-rule="evenodd" clip-rule="evenodd" d="M204.28 355.348C186.365 363.643 165.362 364.319 145.487 361.956C107.011 357.383 68.1561 340.145 49.0251 308.956C40.7729 295.504 36.6051 280.249 33.7014 265.02C29.8235 244.68 28.2569 222.815 38.0018 204.229C46.217 188.561 61.4625 177.159 76.6518 166.86C92.5709 156.065 109.816 145.569 129.422 143.412C185.98 142.377 180.25 162.012 239.316 130.784C256.487 121.705 307.537 137.288 324.786 142.377C342.034 147.466 376.072 163.165 399.155 181.813C408.803 189.609 417.703 198.53 423.126 209.261C431.245 225.329 430.851 244.046 427.063 261.431C423.242 278.966 414.946 297.203 398.096 306.003C390.483 309.979 381.705 311.684 372.989 312.336C336.59 315.062 297.871 300.7 264.562 314.535C241.759 324.005 226.632 344.999 204.28 355.348Z" fill="#4ADE80"/>
<path fill-rule="evenodd" clip-rule="evenodd" d="M67.7995 211.015C74.6391 204.788 81.0676 198.369 85.3937 192.774C91.3488 185.073 100.08 177.75 110.426 176.337C122.492 174.69 133.572 182.377 142.343 190.209C154.459 201.03 165.333 213.039 174.723 225.968C170.957 226.421 162.84 231.614 152.053 231.448C145.704 231.351 138.119 226.122 130.786 225.773C125.693 225.531 120.132 230.457 115.004 230.082C106.037 229.425 97.6496 223.324 90.0856 222.22C85.579 221.562 79.4974 225.702 76.0337 224.871C66.5135 222.589 63.6925 214.753 67.7995 211.015Z" fill="white"/>
<path fill-rule="evenodd" clip-rule="evenodd" d="M272.898 307.882C302.458 298.875 334.49 309.314 365.613 308.929C379.402 308.758 394.141 305.946 403.634 296.702C382.842 285.389 367.061 267.398 355.566 247.794C344.071 228.19 336.514 206.862 329.017 185.668C319.155 180.471 306.461 189.26 295.635 186.098C290.103 184.483 283.496 180.096 279.527 184.005C277.13 186.366 272.667 184.977 270.336 182.561C268.005 180.146 266.707 176.935 264.079 174.796C261.451 172.658 256.462 172.388 255.125 175.379C252.809 180.557 250.369 185.905 245.93 189.721C241.491 193.536 234.453 195.378 229.253 192.497C225.192 190.247 223.275 185.867 220.909 182.076C218.544 178.285 217.621 174.877 212.917 175.379C197.026 206.32 185.163 236.736 165.615 265.832C157.215 278.335 110.216 325.997 82.9071 319.854C55.5983 313.712 57.6244 308.929 48.4022 301.376C58.0087 319.437 74.9792 333.648 94.3559 342.834C113.733 352.02 135.436 356.436 157.144 358.032C165.711 358.662 174.399 358.86 182.831 357.328C217.387 351.052 239.452 318.074 272.898 307.882Z" fill="white"/>
<path fill-rule="evenodd" clip-rule="evenodd" d="M243.263 187.202C246.292 183.586 248.184 179.237 251.304 175.688C254.424 172.14 259.49 169.39 264.21 170.76C268.602 172.035 271.019 176.271 272.977 180.121C273.96 182.054 276.949 182.204 279.103 181.429C281.257 180.654 283.194 179.252 285.491 179.02C290.246 178.541 293.827 183.092 298.473 184.14C305.387 185.7 312.337 179.179 319.169 181.02C322.061 181.798 324.564 184.032 327.568 183.841C321.789 171.04 317.437 157.709 311.37 145.021C305.302 132.334 297.301 120.089 285.652 111.341C284.454 110.442 283.144 109.552 281.613 109.371C280.082 109.191 278.308 109.994 278.04 111.399C277.243 115.574 276.445 119.75 275.647 123.925C275.253 125.993 274.21 128.588 271.939 128.549C270.426 128.522 269.264 127.151 269.056 125.766C268.847 124.381 269.35 122.997 269.844 121.676C271.396 117.535 272.947 113.393 274.498 109.252C263.856 112.801 254.632 119.388 246.986 127.094C239.339 134.8 233.155 143.631 227.228 152.537C222.153 160.163 217.237 167.878 212.483 175.678C218.858 174.841 224.411 179.679 228.018 184.608C230.176 187.557 232.746 191.071 236.598 191.058C239.315 191.049 241.601 189.187 243.263 187.202Z" fill="white"/>
<path fill-rule="evenodd" clip-rule="evenodd" d="M284.495 98.0816C283.79 97.8723 283.049 97.634 282.569 97.1127C281.877 96.3622 281.923 95.2652 282.006 94.2827C282.829 84.5712 283.651 74.8591 284.475 65.1476C284.57 64.0222 285.764 63.1928 286.973 63.0266C288.181 62.8604 289.396 63.1985 290.562 63.5326C298.088 65.6882 305.614 67.8438 313.139 69.9994C314.975 70.5252 315.074 72.8816 314.686 74.6225C314.3 76.3629 314.009 78.5979 315.654 79.5191C326.629 85.6682 338.291 90.7691 350.395 94.7143C351.177 94.9696 351.234 96.069 350.688 96.6459C350.142 97.2228 349.269 97.4088 348.458 97.5688C336.17 99.9921 324.144 103.557 312.624 108.191C311.012 108.84 308.907 109.432 307.69 108.26C306.824 107.426 306.907 106.121 306.834 104.967C306.761 103.813 306.21 102.431 304.969 102.285C298.024 101.469 291.161 100.06 284.495 98.0816ZM310.278 78.3835C311.962 75.9199 310.761 72.1952 307.893 70.9841C301.092 68.1121 293.954 65.9208 286.646 64.4618C287.86 66.1942 287.795 68.4093 287.688 70.4713C287.277 78.388 286.854 86.3779 284.617 94.0291C284.424 94.6911 285.344 95.1211 286.068 95.2708C292.55 96.6101 299.081 97.7492 305.646 98.6846C305.105 92.8373 304.565 86.99 304.024 81.1426C303.964 80.4931 303.908 79.8141 304.176 79.2105C304.61 78.2332 305.815 77.7016 306.958 77.6716C308.101 77.6415 309.206 78.0153 310.278 78.3835ZM308.869 82.9925C309.385 89.8529 309.901 96.7139 310.417 103.574C310.463 104.176 310.539 104.84 311.02 105.247C321.484 101.233 332.325 98.0561 343.381 95.7655C331.401 92.5866 321.295 83.8899 308.869 82.9925Z" fill="#FFB61D"/>
<path fill-rule="evenodd" clip-rule="evenodd" d="M204.28 355.348C186.365 363.643 165.362 364.319 145.487 361.956C107.011 357.383 68.1567 340.145 49.0253 308.957C40.7731 295.504 36.6053 280.249 33.7016 265.02C32.1085 256.664 29.0147 244.151 34.6798 238.471C35.9455 237.202 71.5044 210.737 85.3943 192.774C91.3495 185.073 100.081 177.75 110.427 176.337C122.492 174.69 133.573 182.377 142.343 190.21C154.46 201.03 165.334 213.039 174.724 225.968C164.376 221.906 156.929 213.462 150.055 205.24C143.182 197.018 136.08 188.415 126.017 183.781C115.954 179.148 101.98 179.919 95.4448 188.374C79.8676 208.524 60.1631 225.939 37.686 239.422C35.9955 240.436 35.8426 242.629 35.8742 244.491C36.2396 265.988 38.8403 290.47 57.4494 303.374C72.9923 314.151 95.5553 312.745 112.581 304.09C129.607 295.436 142.059 280.797 152.748 265.801C184.106 221.812 204.468 171.531 238.172 129.05C245.92 119.284 255.049 109.518 267.532 105.837C275.861 103.38 278.196 93.5577 278.043 85.4788C277.89 77.3999 277.063 68.2142 283.133 62.3987C281.853 75.8337 280.574 89.2687 279.295 102.704C297.938 111.258 308.828 129.471 316.82 147.234C328.688 173.61 336.743 201.372 349.238 227.5C361.732 253.628 379.466 278.734 405.683 293.867C417.818 279.267 424.737 255.894 424.737 242.537C417.818 235.567 407.988 224.662 396.487 219.753C382.777 213.9 367.737 224.161 356.724 233.711C362.811 225.148 370.118 216.135 380.889 213.71C389.583 211.753 398.888 214.672 406.102 219.567C413.315 224.46 418.815 231.159 424.208 237.759C429.661 239.422 430.851 244.047 427.063 261.431C423.242 278.966 414.946 297.203 398.096 306.003C390.484 309.979 381.705 311.684 372.989 312.336C336.591 315.062 297.871 300.7 264.562 314.535C241.759 324.005 226.632 344.999 204.28 355.348ZM272.899 307.883C302.459 298.875 334.491 309.314 365.614 308.929C379.403 308.758 394.142 305.946 403.635 296.702C382.844 285.389 367.063 267.398 355.567 247.794C344.072 228.19 336.515 206.862 329.019 185.668C319.156 180.471 306.462 189.26 295.636 186.099C290.104 184.483 283.497 180.096 279.527 184.006C277.131 186.366 272.668 184.977 270.337 182.561C268.006 180.146 266.708 176.935 264.08 174.797C261.451 172.658 256.463 172.388 255.125 175.379C252.81 180.557 250.37 185.905 245.93 189.721C241.491 193.536 234.453 195.378 229.254 192.497C225.193 190.247 223.276 185.867 220.91 182.076C218.545 178.285 214.626 174.495 209.922 174.998C194.032 205.938 176.256 236.051 156.708 265.148C148.308 277.651 139.417 290.142 127.387 299.784C115.356 309.426 99.6445 316.021 83.7861 314.68C70.9888 313.598 59.3644 307.575 48.4031 301.376C58.0097 319.438 74.9798 333.649 94.3571 342.835C113.734 352.02 135.437 356.437 157.145 358.032C165.712 358.662 174.4 358.86 182.832 357.328C217.388 351.052 239.453 318.074 272.899 307.883ZM242.65 184.933C245.679 181.317 247.571 176.968 250.691 173.419C253.811 169.871 258.877 167.121 263.596 168.491C267.989 169.766 270.405 174.002 272.364 177.852C273.347 179.786 276.335 179.935 278.49 179.16C280.644 178.385 282.58 176.983 284.878 176.752C289.632 176.272 293.213 180.823 297.86 181.872C304.774 183.431 311.723 176.91 318.556 178.751C321.448 179.529 323.95 181.763 326.956 181.573C321.177 168.771 316.855 156.166 310.789 143.478C304.721 130.791 291.542 108.354 281 107.102C270.337 105.837 254.019 117.119 246.372 124.825C238.726 132.531 232.542 141.362 226.615 150.268C221.54 157.894 216.624 165.609 211.87 173.409C218.245 172.573 223.798 177.41 227.404 182.34C229.563 185.289 232.133 188.802 235.985 188.789C238.702 188.78 240.988 186.918 242.65 184.933Z" fill="#00160A"/>
<path fill-rule="evenodd" clip-rule="evenodd" d="M195.658 82.0457C188.961 82.6743 183.498 88.108 180.738 95.4626C180.021 97.3742 177.666 98.2569 173.535 98.6251L173.274 98.6472C164.126 99.4011 158.054 101.578 155.126 106.556L155.003 106.769C154.765 107.192 154.561 107.615 154.263 108.283L154.07 108.718C153.379 110.287 153.026 110.951 152.434 111.642C150.593 113.794 147.822 114.456 142.276 114.61L141.66 114.625C128.374 114.898 118.987 116.764 111.385 121.671C109.209 123.075 107.914 124.468 107.625 126.254C107.292 128.301 108.579 130.421 110.634 131.585C112.277 132.515 114.249 132.883 116.711 132.89C119.707 132.898 122.703 132.416 125.52 131.473L125.755 131.393C126.179 131.248 126.581 131.1 127.179 130.871L128.445 130.383C131.043 129.389 132.303 129.037 133.883 128.96C136.322 128.842 138.246 129.437 142.344 131.287L143.206 131.678C144.098 132.082 144.742 132.363 145.373 132.619L145.545 132.687C152.419 135.432 159.447 135.891 170.862 135.086L173.114 134.918L178.102 134.528C179.411 134.43 180.349 134.367 181.429 134.303L182.471 134.247C186.918 134.023 191.664 134.02 199.414 134.163L204.745 134.265C215.428 134.46 220.244 134.408 225.38 133.919C231.345 133.352 235.23 129.502 236.823 123.8C238.114 119.177 237.644 113.785 235.846 111.222C232.254 106.106 226.894 103.024 221.961 104.443C220.326 104.914 218.269 103.805 217.22 101.984C216.65 100.996 216.361 100.104 215.885 98.1054L215.656 97.1383C215.523 96.5914 215.425 96.2261 215.303 95.8148C213.629 90.2188 209.06 85.4408 203.256 83.2183C200.709 82.2426 198.118 81.8154 195.658 82.0457ZM202.551 84.7901C207.741 86.7778 211.863 91.03 213.448 96.01L213.527 96.2681C213.642 96.6499 213.734 96.9959 213.861 97.5223L214.146 98.7164C214.624 100.7 214.947 101.661 215.595 102.785C216.992 105.209 219.798 106.755 222.356 106.109L222.509 106.069C226.466 104.929 231.106 107.597 234.301 112.148C235.785 114.262 236.212 119.176 235.04 123.374C233.623 128.446 230.299 131.741 225.191 132.226L224.618 132.279C219.915 132.697 215.237 132.747 205.588 132.578L198.544 132.445C191.278 132.318 186.695 132.33 182.368 132.548L180.672 132.644C179.46 132.719 178.305 132.802 176.418 132.95L171.216 133.354C159.95 134.175 153.1 133.782 146.563 131.239L146.275 131.125C145.729 130.907 145.182 130.673 144.467 130.353L142.85 129.622C138.672 127.75 136.577 127.126 133.787 127.261C131.88 127.353 130.453 127.765 127.494 128.905L126.186 129.409C125.668 129.604 125.307 129.734 124.892 129.873C122.279 130.748 119.497 131.196 116.717 131.188C114.562 131.182 112.9 130.873 111.595 130.134C110.131 129.304 109.232 127.823 109.446 126.507C109.641 125.303 110.641 124.227 112.439 123.067C119.579 118.458 128.505 116.641 141.185 116.338L141.701 116.326C148.206 116.192 151.498 115.478 153.879 112.698C154.553 111.91 154.95 111.205 155.594 109.769L156.092 108.65C156.344 108.097 156.522 107.744 156.743 107.369C159.213 103.171 164.534 101.168 172.699 100.407L173.438 100.342C178.33 99.9388 181.306 98.8905 182.418 96.1728L182.478 96.0202C185.027 89.2261 189.992 84.2881 195.844 83.739C197.886 83.5473 200.072 83.8848 202.254 84.6789L202.551 84.7901Z" fill="#00160A"/>
<path fill-rule="evenodd" clip-rule="evenodd" d="M395.235 117.265L395.007 117.475C394.834 117.638 394.663 117.808 394.451 118.024L393.609 118.9C392.805 119.732 392.371 120.128 391.803 120.524C390.565 121.388 389.083 121.654 388.097 121.144C387.7 120.939 387.405 120.671 386.835 120.023L386.411 119.54C386.19 119.293 386.033 119.13 385.84 118.95C383.298 116.583 378.861 116.469 375.482 118.353C372.838 119.828 370.938 122.086 368.857 125.679C368.007 127.147 366.138 128.162 363.914 128.472C362.835 128.623 361.698 128.634 360.246 128.534L359.535 128.48L357.302 128.271C345.55 127.199 333.531 128.734 322.534 132.71C320.798 133.337 319.833 133.9 319.22 134.947C318.337 136.456 319.233 138.647 321.119 138.744C353.356 140.395 385.726 139.83 417.874 137.058L419.913 136.881L421.401 136.787C421.539 136.777 421.654 136.768 421.796 136.757L422.178 136.722C425.111 136.421 426.722 135.522 426.722 133.268C426.722 131.092 425.586 130.496 422.72 130.226L422.145 130.17C421.035 130.059 420.528 129.975 419.843 129.778C417.413 129.082 414.517 127.631 413.885 126.906C412.95 125.834 412.552 124.825 411.984 122.479L411.805 121.736C411.207 119.32 410.732 118.168 409.607 116.874C406.322 113.101 399.313 113.563 395.235 117.265ZM408.172 117.941C409.105 119.013 409.503 120.022 410.07 122.364L410.25 123.107C410.848 125.527 411.323 126.68 412.451 127.973C413.363 129.019 416.549 130.616 419.298 131.404L419.551 131.474C420.209 131.649 420.76 131.738 421.724 131.839L422.994 131.966C424.615 132.143 424.88 132.356 424.88 133.268C424.88 134.378 424.011 134.844 421.819 135.045L421.259 135.09L419.857 135.178C419.789 135.183 419.726 135.188 419.665 135.192L419.483 135.208C386.841 138.107 353.963 138.721 321.221 137.044C320.847 137.026 320.539 136.272 320.84 135.756C321.18 135.176 321.854 134.783 323.205 134.295C333.746 130.484 345.254 128.972 356.528 129.912L357.907 130.038L359.047 130.147C359.313 130.17 359.534 130.189 359.777 130.207C361.514 130.341 362.867 130.339 364.189 130.155C366.943 129.771 369.326 128.477 370.48 126.482C372.418 123.136 374.141 121.088 376.433 119.81C379.137 118.302 382.647 118.392 384.533 120.149L384.643 120.254C384.733 120.343 384.825 120.439 384.937 120.563L385.291 120.964C386.081 121.871 386.501 122.269 387.197 122.629C388.912 123.516 391.146 123.114 392.912 121.883C393.561 121.431 394.036 121.005 394.823 120.197L395.805 119.177C396.09 118.886 396.292 118.69 396.525 118.479C399.895 115.421 405.648 115.042 408.172 117.941Z" fill="#00160A"/>
<path fill-rule="evenodd" clip-rule="evenodd" d="M278.042 85.4788C277.889 77.3999 277.062 68.2142 283.132 62.3987C281.852 75.8337 280.573 89.2687 279.293 102.704C281.371 103.657 278.273 105.251 276.395 105.284C269.668 105.398 278.195 93.5577 278.042 85.4788Z" fill="#FFB61D"/>
</g>
<defs>
<clipPath id="clip0_73_907">
<rect width="460.357" height="425.445" fill="white"/>
</clipPath>
</defs>
</svg>
